<?xml version="1.0" encoding="utf-8"?>
<!DOCTYPE svg PUBLIC "-//W3C//DTD SVG 1.1//EN" "http://www.w3.org/Graphics/SVG/1.1/DTD/svg11.dtd" []>
<svg version="1.1" id="icons" xmlns="http://www.w3.org/2000/svg" xmlns:xlink="http://www.w3.org/1999/xlink" width="96" height="60" viewBox="0 0 96 60">
  <defs>
    <style type="text/css"><![CDATA[
      svg > g {
        display: none;
      }
      svg > g:target {
        display: inherit;
      }
    ]]></style>
  </defs>
  <g id="us" fill="none" fill-rule="evenodd">
    <path d="M0 0h96v60H0V0z" fill="#F3F1F1"/>
    <path d="M0 0h96v4.615H0V0zM0 9.23h96v4.616H0V9.23zM0 46.154h96v4.615H0v-4.616zM0 36.923h96v4.615H0v-4.615zM0 27.692h96v4.616H0v-4.616zM0 18.462h96v4.615H0v-4.615zM0 55.385h96V60H0v-4.615z" fill="#BE2534"/>
    <path d="M0 0h45.12v32.308H0V0z" fill="#35335D"/>
    <g transform="translate(3.805 2.746)" fill="#FFF">
      <circle cx="1.5" cy="1.5" r="1.5"/>
      <circle cx="1.5" cy="9.5" r="1.5"/>
      <circle cx="1.5" cy="17.5" r="1.5"/>
      <circle cx="1.5" cy="25.5" r="1.5"/>
      <circle cx="8.5" cy="25.5" r="1.5"/>
      <circle cx="15.5" cy="25.5" r="1.5"/>
      <circle cx="22.5" cy="25.5" r="1.5"/>
      <circle cx="29.5" cy="25.5" r="1.5"/>
      <circle cx="36.5" cy="25.5" r="1.5"/>
      <circle cx="8.5" cy="17.5" r="1.5"/>
      <circle cx="15.5" cy="17.5" r="1.5"/>
      <circle cx="22.5" cy="17.5" r="1.5"/>
      <circle cx="29.5" cy="17.5" r="1.5"/>
      <circle cx="36.5" cy="17.5" r="1.5"/>
      <circle cx="8.5" cy="9.5" r="1.5"/>
      <circle cx="15.5" cy="9.5" r="1.5"/>
      <circle cx="22.5" cy="9.5" r="1.5"/>
      <circle cx="29.5" cy="9.5" r="1.5"/>
      <circle cx="36.5" cy="9.5" r="1.5"/>
      <circle cx="5.5" cy="5.5" r="1.5"/>
      <circle cx="5.5" cy="13.5" r="1.5"/>
      <circle cx="5.5" cy="21.5" r="1.5"/>
      <circle cx="12.5" cy="21.5" r="1.5"/>
      <circle cx="19.5" cy="21.5" r="1.5"/>
      <circle cx="26.5" cy="21.5" r="1.5"/>
      <circle cx="33.5" cy="21.5" r="1.5"/>
      <circle cx="12.5" cy="13.5" r="1.5"/>
      <circle cx="19.5" cy="13.5" r="1.5"/>
      <circle cx="26.5" cy="13.5" r="1.5"/>
      <circle cx="33.5" cy="13.5" r="1.5"/>
      <circle cx="12.5" cy="5.5" r="1.5"/>
      <circle cx="19.5" cy="5.5" r="1.5"/>
      <circle cx="26.5" cy="5.5" r="1.5"/>
      <circle cx="33.5" cy="5.5" r="1.5"/>
      <circle cx="8.5" cy="1.5" r="1.5"/>
      <circle cx="15.5" cy="1.5" r="1.5"/>
      <circle cx="22.5" cy="1.5" r="1.5"/>
      <circle cx="29.5" cy="1.5" r="1.5"/>
      <circle cx="36.5" cy="1.5" r="1.5"/>
    </g>
  </g>
  <g id="ae" fill="none" fill-rule="evenodd">
    <path d="M0 0h96v60H0V0z" fill="#F1EFF0"/>
    <path d="M0 0h24v60H0V0z" fill="#DA2F2A"/>
    <path d="M24 39.692h72V60H24V39.692z" fill="#0A0B09"/>
    <path d="M24 0h72v20.308H24V0z" fill="#0E9446"/>
  </g>
  <g id="at" fill="none" fill-rule="evenodd">
    <path d="M0 20.308h96v19.384H0V20.308z" fill="#F2F0F0"/>
    <path d="M0 0h96v20.308H0V0zM0 39.692h96V60H0V39.692z" fill="#DA2F2A"/>
  </g>
  <g id="au" fill="none" fill-rule="evenodd">
    <path d="M0 0h96v60H0V0z" fill="#282A68"/>
    <path d="M8.833 39.94l5.435 1.79 1.756-5.078 2.08 5.08 5.593-1.793-3.195 4.48 4.953 2.99-5.594.447.48 5.526-4.316-3.883-3.994 4.182.8-5.676-6.075-.45 5.115-2.837-3.037-4.78M56.027 23.974l2.774.916.898-2.594 1.062 2.594 2.855-.916-1.632 2.288 2.53 1.526-2.856.228.245 2.822-2.204-1.982-2.04 2.135.41-2.896-3.103-.23 2.61-1.45-1.548-2.44M71.85 7.692l2.774.914.897-2.593 1.06 2.593 2.858-.914-1.63 2.288 2.53 1.525-2.857.23.246 2.82-2.205-1.983-2.038 2.136.408-2.898-3.102-.228 2.61-1.45-1.548-2.44M86.07 19.93l2.775.914.897-2.592 1.062 2.592 2.856-.915-1.633 2.287 2.53 1.525-2.856.23.246 2.82-2.204-1.982-2.04 2.136.408-2.898-3.102-.23 2.613-1.45-1.55-2.44M71.845 47.714l2.774.916.898-2.594 1.06 2.594 2.856-.916-1.63 2.288 2.527 1.526-2.855.228.246 2.822-2.202-1.982-2.04 2.136.407-2.9-3.1-.228 2.61-1.45-1.55-2.44M79.558 32.246h1.84l.72-1.57.638 1.494h1.758l-1.28 1.27.48 1.793-1.52-.97-1.596.97.398-1.643-1.438-1.344" fill="#F2F0F0"/>
    <g>
      <path d="M0 0h48v29.538H0V0z" fill="#282A68"/>
      <path d="M27.986 0v8.987L42.606 0H48v3.39L37.452 9.944H48v9.723H37.452L48 26.224l-.025 3.295-5.428.018-14.56-8.986v8.986h-7.973v-8.986l-14.56 8.986H0v-3.314l10.668-6.556H0V9.87h10.668L.018 3.39.014.01l5.44.014 14.56 9.037V0h7.973" fill="#F2F0F0"/>
      <g fill="#DA2F33">
        <path d="M48 11.746H26.387V0h-4.793v11.746H0v5.897h21.594v11.895h4.793V17.643H48v-5.897"/>
        <path d="M47.995 27.41L35.49 19.994h-3.33L48 29.538l-.005-2.13zM0 29.538h3.38l15.82-9.46-3.614-.083L0 29.538M0 2.107V0l15.84 9.543H12.6L0 2.107M48 0h-3.555L28.8 9.543h3.362L48 0"/>
      </g>
    </g>
  </g>
  <g id="be" fill="none" fill-rule="evenodd">
    <path d="M0 0h96v60H0V0z" fill="#F8B938"/>
    <path d="M0 0h31.68v60H0V0z" fill="#434B58"/>
    <path d="M64.32 0H96v60H64.32V0z" fill="#DA2F2A"/>
  </g>
  <g id="br" fill="none" fill-rule="evenodd">
    <path d="M0 0h96v60H0V0z" fill="#009448"/>
    <path d="M8.64 30L48.332 5.54 88.157 29.87 48.465 54.463 8.64 30.002" fill="#F8B938"/>
    <g transform="translate(31.64 13.538)">
      <circle fill="#232D5A" cx="16.5" cy="16.5" r="16.5"/>
      <path d="M1.136 10.462S4.018 8.687 18.03 12.53c14.01 3.843 14.757 6.594 14.757 6.594l-.62 2.696s-1.068-3.098-14.833-6.697c-13.764-3.6-17.02-2.01-17.02-2.01l.822-2.65z" fill="#FFFFFE"/>
    </g>
  </g>
  <g id="ca" fill="none" fill-rule="evenodd">
    <path d="M0 0h96v60H0V0z" fill="#F2F0F0"/>
    <path d="M0 0h24v60H0V0zM72 0h24v60H72V0zM46.277 14.736L48 12l3.446 5.582s.29.584 1.23.293l2.79-1.278-1.723 8.428s-.37 1.24.33 1.423c0 0 .45.33 1.147-.437l4.185-4.195.657 2.006s.37.712 1.476.55c1.325-.198 1.1-.28 4.882-.84l-1.558 4.816s-.41.92.094 1.225l2.244.928-9.23 6.713s-.574.513-.41 1.205l.82 2.19-8.78-.986s-.892-.146-1.15.584l.247 8.683-1.6.036.452-8.574s.04-.876-1.027-.767l-8.903 1.06.74-2.154s.102-.823-.248-1.205l-9.312-6.75 2.134-.912s.513-.165.286-.95l-1.64-5.18 4.963.912s1.07.22 1.395-.365c.29-.512.616-2.225.616-2.225l4.39 4.342s.564.51 1.19.22c0 0 .33-.115.246-.73-.318-2.286-1.93-9.05-1.93-9.05l2.546 1.168s.985.51 1.477-.073l1.804-2.956" fill="#DA2F33"/>
  </g>
  <g id="ch" fill="none" fill-rule="evenodd">
    <path d="M0 0h96v60H0V0z" fill="#DA2F2A"/>
    <path d="M68.684 24.436H54.55V11.158H42.58v13.278H28.444V35.69H42.58v13.28h11.97V35.69h14.134V24.437" fill="#F3F1F1"/>
  </g>
  <g id="cz">
    <rect x="0" y="0" fill="#FFFFFF" width="96" height="30"/>
    <rect x="0" y="30" fill="#D7141A" width="96" height="30"/>
    <polygon fill="#11457E" points="0,60 0,0 46.5400009,30 "/>
  </g>
  <g id="de" fill="none" fill-rule="evenodd">
    <path d="M0 20.308h96v19.384H0V20.308z" fill="#DA2F2A"/>
    <path d="M0 0h96v20.308H0V0z" fill="#434B58"/>
    <path d="M0 39.692h96V60H0V39.692z" fill="#F8B938"/>
  </g>
  <g id="dk" fill="none" fill-rule="evenodd">
    <path d="M0 0h96v60H0V0z" fill="#DA2F2A"/>
    <path d="M96 25.532H32.914V0h-10.97v25.532H0v10.213h21.943V60h10.97V35.745H96V25.532" fill="#FFF"/>
  </g>
  <g id="es" fill="none" fill-rule="evenodd">
    <path d="M0 15h96v30H0V15z" fill="#F6BB26"/>
    <path d="M0 0h96v15H0V0zM0 45h96v15H0V45z" fill="#D3232A"/>
    <g transform="translate(19 21)">
      <path fill="#C8C8C3" d="M1 8h2v9H1z"/>
      <path fill="#C7AD33" d="M1 5h2v2H1z"/>
      <path fill="#B8252A" d="M1 4h2v1H1zM21 4h2v1h-2zM6 1s4.025-1 6.038-1C14.025 0 18 1 18 1v2s-3.99 2-5.983 2C10.01 5 6 3 6 3V1z"/>
      <path d="M7.223 3.627s3.234-1.357 4.963-1.357c1.604 0 4.67 1.357 4.67 1.357l-1.657.595s-2.058-.847-3.014-.847c-1.044 0-3.327.847-3.327.847l-1.637-.595z" fill="#C7AD33"/>
      <path fill="#0A5496" d="M0 18h4v1H0z"/>
      <path fill="#0A5496" d="M0 18h4v1H0zM20 18h4v1h-4z"/>
      <circle fill="#0A5496" cx="12" cy="13" r="1"/>
      <path fill="#FFF" d="M0 19h4v1H0zM20 19h4v1h-4z"/>
      <path fill="#C7AD33" d="M21 5h2v2h-2z"/>
      <path fill="#C8C8C3" d="M21 8h2v9h-2z"/>
      <path fill="#B8252A" d="M6 6h6v7H6z"/>
      <path fill="#C8C8C3" d="M12 6h6v7h-6z"/>
      <path d="M6 17.516V13h6v4.233c0 2-1.97 2.767-2.956 2.767C8.03 20 6 18.996 6 17.516z" fill="#C7AD33"/>
      <path fill="#B8252A" d="M7 13h1v6H7zM10 13h1v6h-1zM12 17.516V13h6v4.233c0 2-1.97 2.767-2.956 2.767C14.03 20 12 18.996 12 17.516z"/>
      <path fill="#C7AD33" d="M13 14h1v4h-1zM16 14h1v4h-1zM7 11h4v1H7zM8 7h2v4H8z"/>
      <path fill="#E46E9D" d="M14 7h2v4h-2z"/>
      <path fill="#C7AD33" d="M14 18h2v1h-2z"/>
    </g>
  </g>
  <g id="fi" fill="none" fill-rule="evenodd">
    <path d="M0 0h96v60H0V0z" fill="#F2F0F0"/>
    <path d="M96 25.532H32.914V0h-10.97v25.532H0v10.213h21.943V60h10.97V35.745H96V25.532" fill="#282B69"/>
  </g>
  <g id="fr" fill="none" fill-rule="evenodd">
    <path d="M0 0h96v60H0V0z" fill="#F2F0F0"/>
    <path d="M0 0h31.68v60H0V0z" fill="#2A4086"/>
    <path d="M64.32 0H96v60H64.32V0z" fill="#DA2F2A"/>
  </g>
  <g id="gb" fill="none" fill-rule="evenodd">
    <path d="M0 0h96v60H0V0z" fill="#282A68"/>
    <path d="M55.97 0v18.255L85.215 0H96v6.884L74.904 20.2H96v19.75H74.904L96 53.268l-.05 6.694-10.856.04L55.97 41.746V60H40.03V41.746L10.904 60H0v-6.733L21.335 39.95H0v-19.9h21.335L.038 6.883.026.022l10.88.027 29.123 18.356V0h15.94" fill="#F2F0F0"/>
    <g fill="#DA2F33">
      <path d="M96 23.858H52.774V0h-9.586v23.858H0v11.98h43.188V60h9.586V35.838H96v-11.98"/>
      <path d="M95.99 55.675l-25.01-15.06h-6.66L96 60l-.01-4.325zM0 60h6.76L38.4 40.78l-7.227-.165L0 60M0 4.28V0l31.68 19.385h-6.478L0 4.28M96 0h-7.11L57.6 19.385h6.724L96 0"/>
    </g>
  </g>
  <g id="hk" fill="none" fill-rule="evenodd">
    <path d="M0 0h96v60H0V0z" fill="#DA2F2A"/>
    <path d="M49.32 30.878c1.06 5.98-4.68 7.944-4.68 7.944l-.082-.228c3.72-1.583 4.555-4.203 4.614-6 .037-1.118-.244-1.932-.244-1.932.26 1.966-1.32 3.16-1.32 3.16-1.847 1.34-3.76.85-3.76.85-1.393-.353-2.97.424-2.97.424-1.752.848-2.663 2.055-2.693 3.042-.02.668-.205 1.346-.41 1.752-1.1 2.167-3.67 1.64-3.67 1.64 4.773 3.618 9.752 2.404 12.252.742 6.902-4.586 2.962-11.394 2.962-11.394zm-6.154 8.715l-.655.923-.24-1.098-1.09-.234 1.016-.523-.057-1.08.848.736 1.08-.404-.5 1.028.764.793-1.166-.14z" fill="#FFF"/><path d="M38.463 29.095l.243-.196s3.954 4.5 9.405 1.45c0 0-3.218 1.354-5.18-1.82-.167-.27-.42-.904-.435-1.18-.052-1-.332-2.028-2.246-3.416 0 0-1.577-1.134-3.32-.74-4.086.93-4.514-2.57-4.514-2.57-3.1 7.5 3.767 11.522 3.767 11.522 6.804 3.863 11.81-1.414 11.81-1.414s-4.89 2.914-9.53-1.637zm-.985.014l-.25-1.098-1.092-.228 1.012-.53-.066-1.08.854.73 1.076-.412-.492 1.034.773.785-1.168-.128-.647.927z" fill="#FFF"/>
    <path d="M51.327 15.904c-.503-2.353 1.897-3.36 1.897-3.36-6.145-.248-9.362 3.5-10.306 6.226-2.605 7.523 4.91 10.794 4.91 10.794-4.674-4.21-1.324-8.98-1.324-8.98l.21.137c-1.97 3.34-.967 5.907.136 7.385a6.57 6.57 0 0 0 1.43 1.413c-1.464-1.433-.96-3.268-.96-3.268.624-2.107 2.472-2.778 2.472-2.778 1.344-.492 2.112-1.993 2.112-1.993.863-1.66.823-3.135.215-3.943-.41-.545-.698-1.195-.793-1.633zm-3.174 4.164l-.61.925-.255-1.103-1.12-.21 1.025-.537-.066-1.105.897.746 1.023-.418-.48.984.737.837-1.15-.12z" fill="#FFF"/>
    <path d="M57.528 21.322c-7.935.628-8.64 7.644-8.64 7.644s2.104-5.047 8.728-3.927l-.072.29s-6.038-1.454-8.51 4.01c0 0 1.742-2.867 5.332-1.385.306.127.912.498 1.098.713.676.78 1.552 1.456 3.975 1.522 0 0 1.99.047 3.144-1.23 2.712-3.003 5.272-.413 5.272-.413-2.24-7.762-10.328-7.225-10.328-7.225zm1.9 5.194l-.61.926-.256-1.104-1.12-.21 1.025-.537-.064-1.104.895.747 1.025-.418-.48.987.736.835-1.153-.12z" fill="#FFF"/>
    <path d="M60.448 35.794c-2.64-7.513-10.78-6.026-10.78-6.026 6.436.835 6.738 6.53 6.738 6.53l-.256.005c-.514-3.783-2.947-5.307-4.77-5.895-1.133-.363-2.048-.356-2.048-.356 2.088.355 2.84 2.114 2.84 2.114.824 2.045-.247 3.603-.247 3.603-.774 1.136-.448 2.77-.448 2.77.347 1.816 1.31 2.985 2.312 3.306.677.215 1.317.582 1.67.885 1.89 1.625.588 3.757.588 3.757 5.12-3.176 5.357-7.97 4.4-10.693zm-4.107 2.793l-.562.9-.234-1.06-1.123-.27 1.008-.537-.093-1.083.904.753 1.036-.446-.488.996.75.86-1.197-.113z" fill="#FFF"/>
  </g>
  <g id="hu" fill="none" fill-rule="evenodd">
    <path d="M0 0h96v20.308H0V0z" fill="#DA2F2A"/>
    <path d="M0 20.308h96v19.384H0V20.308z" fill="#F3F1F1"/>
    <path d="M0 39.692h96V60H0V39.692z" fill="#16A577"/>
  </g>
  <g id="id" fill="none" fill-rule="evenodd">
    <rect fill="#FF0000" width="96" height="30.0002651"/>
    <rect y="30.0002651" fill="#FFFFFF" width="96" height="29.9997349"/>
  </g>
  <g id="ie" fill="none" fill-rule="evenodd">
    <path d="M0 0h96v60H0V0z" fill="#F2F0F0"/>
    <path d="M0 0h31.68v60H0V0z" fill="#0E9446"/>
    <path d="M64.32 0H96v60H64.32V0z" fill="#EC9141"/>
  </g>
  <g id="il" fill="none" fill-rule="evenodd">
    <path d="M0 0h96v60H0V0z" fill="#F1EFF0"/>
    <path d="M0 44.308h96v10.154H0V44.308zM0 5.538h96v10.154H0V5.538z" fill="#294086"/>
    <g fill="#294086">
      <path d="M47.49 18.707l-10.623 17.94h21.365L47.49 18.708zm.022 3.716l7.396 12.344H40.19l7.322-12.344z"/>
      <path d="M58.232 24.628H36.867l10.623 17.94 10.742-17.94zm-18.042 1.88h14.718l-7.396 12.345-7.322-12.345z"/>
    </g>
  </g>
  <g id="in" stroke="none" stroke-width="1" fill="none" fill-rule="evenodd">
    <path d="M0,19.6875 L96,19.6875 L96,40.3125 L0,40.3125 L0,19.6875 Z" id="Fill-443" fill="#F2F0F0"/>
    <path d="M0,0 L96,0 L96,19.6875 L0,19.6875 L0,0 Z" id="Fill-444" fill="#EC9141"/>
    <path d="M0,40.3125 L96,40.3125 L96,60 L0,60 L0,40.3125 Z" id="Fill-445" fill="#1F8040"/>
      <g transform="translate(40.000000, 22.000000)">
        <circle stroke="#282862" fill="#FFFFFF" cx="8" cy="8" r="8"/>
        <circle fill="#282862" cx="8" cy="8" r="3"/>
        <path d="M8,0.5 L8,15.5" stroke="#282862" stroke-linecap="square"/>
        <path d="M10.9304835,1.0962136 L5.06951654,14.9037864" stroke="#282862" stroke-linecap="square"/>
        <path d="M14.9538789,5.19045055 L1.04612109,10.8095495" stroke="#282862" stroke-linecap="square"/>
        <path d="M11.1631028,15.1003255 L5.54400394,1.1925677" stroke="#282862" stroke-linecap="square"/>
        <path d="M15.099152,10.970231 L1.29157916,5.10926411" stroke="#282862" stroke-linecap="square"/>
        <path d="M13.3033009,2.69669914 L2.69669914,13.3033009" stroke="#282862" stroke-linecap="square"/>
        <path d="M13.6568542,13.4497475 L3.05025253,2.84314575" stroke="#282862" stroke-linecap="square"/>
        <path d="M15.5,8 L0.5,8" stroke="#282862" stroke-linecap="square"/>
    </g>
  </g>
  <g id="it" fill="none" fill-rule="evenodd">
    <path d="M0 0h96v60H0V0z" fill="#F2F0F0"/>
    <path d="M0 0h31.68v60H0V0z" fill="#0E9446"/>
    <path d="M64.32 0H96v60H64.32V0z" fill="#DA2F2A"/>
  </g>
  <g id="jp" fill="none" fill-rule="evenodd">
    <path d="M0 0h96v60H0V0z" fill="#F2F0F0"/>
    <path d="M67.2 30.462C67.2 20.265 58.603 12 48 12c-10.604 0-19.2 8.265-19.2 18.462 0 10.194 8.596 18.46 19.2 18.46 10.603 0 19.2-8.266 19.2-18.46" fill="#DA2F2A"/>
  </g>
  <g id="kr" fill="none" fill-rule="evenodd">
    <path d="M0 0h96v60H0V0z" fill="#F2F0F0"/>
    <path d="M65.06 29.71c0-8.726-7.266-15.8-16.23-15.8-6.333 0-11.816 3.53-14.494 8.677-.408 1.55-.702 3.892.294 6.073 0 0 2.062 4.47 7.498 4.655 0 0 3.702.18 6.232-2.966 0 0 .61-.777 1.22-1.506 0 0 2.623-3.285 7.59-2.42 0 0 4.685.64 6.186 5.52 0 0 .63 1.698.01 4.8a15.392 15.392 0 0 0 1.695-7.034" fill="#DA2F2A"/>
    <path d="M32.626 29.703c0 8.726 7.267 15.8 16.232 15.8 6.33 0 11.815-3.53 14.492-8.677.41-1.553.702-3.894-.293-6.075 0 0-2.063-4.47-7.498-4.652 0 0-3.703-.183-6.234 2.965 0 0-.608.776-1.218 1.506 0 0-2.624 3.282-7.59 2.416 0 0-4.687-.638-6.186-5.518 0 0-.63-1.698-.01-4.8a15.387 15.387 0 0 0-1.696 7.035" fill="#23335E"/>
    <path d="M26.284 6.744l-8.622 12.354-2.026-1.263 8.62-12.354 2.028 1.264M29.562 8.81L20.94 21.16 18.91 19.9l8.623-12.353 2.027 1.262M32.886 10.916L24.16 23.2l-2.017-1.278L30.87 9.637l2.016 1.28M26.332 52.376l-8.728-12.288-2.016 1.28 8.727 12.286 2.017-1.278M32.886 48.246L24.16 35.96l-2.017 1.28 8.728 12.284 2.016-1.278M77.866 20.077L69.15 7.597l-2.078 1.436 8.715 12.482 2.08-1.438M22.718 44.936l-4.01-5.69 2.14-1.346 4.01 5.69-2.14 1.346M67.692 16.55l-4.01-5.692 2.14-1.347 4.012 5.692-2.142 1.347M72.427 23.43l-4.01-5.69 2.14-1.347 4.01 5.69-2.14 1.347M74.248 12.42l-4.01-5.69 2.14-1.347 4.01 5.69-2.14 1.347M78.982 19.302l-4.01-5.69 2.14-1.348 4.01 5.69-2.14 1.348M27.45 51.646l-4.008-5.69 2.14-1.346 4.01 5.69-2.14 1.346M74.52 37.082l-3.978 5.663-1.895-1.19 3.976-5.662 1.896 1.19M69.783 43.79l-3.975 5.664-1.896-1.19 3.975-5.662 1.896 1.19M77.796 39.145L73.82 44.81l-1.896-1.19 3.976-5.664 1.896 1.19M73.062 45.855l-3.976 5.664-1.896-1.19 3.976-5.663 1.896 1.188M81.073 41.21l-3.975 5.663-1.896-1.188 3.975-5.663 1.896 1.187M76.34 47.92l-3.977 5.664-1.896-1.19 3.976-5.663 1.896 1.19" fill="#0A0B09"/>
  </g>
  <g id="my" fill="none" fill-rule="evenodd">
    <path d="M0 0h96v60H0V0z" fill="#F2F0F0"/>
    <path d="M0 0h96v4.688H0V0zM0 8.438h96v4.687H0V8.437zM0 16.875h96v4.688H0v-4.688zM0 25.313h96V30H0v-4.688zM0 33.75h96v4.688H0V33.75zM0 42.188h96v4.687H0v-4.688zM0 50.625h96v4.688H0v-4.688z" fill="#D82237"/>
    <path d="M0 0h60.48v33.75H0V0z" fill="#203B83"/>
    <path d="M29.083 27.574c-6.184 0-11.195-4.815-11.195-10.755s5.01-10.755 11.195-10.755c2.178 0 4.208.6 5.927 1.633-2.37-2.194-5.592-3.545-9.144-3.545-7.282 0-13.186 5.67-13.186 12.666 0 6.995 5.904 12.666 13.186 12.666 3.552 0 6.774-1.35 9.144-3.545a11.472 11.472 0 0 1-5.927 1.634" fill="#FACA21"/>
    <path d="M38.196 12.627l.995-6.106.997 6.107 3.828-5.15-1.99 5.96 5.82-3.017-4.442 4.487 6.51-.368-6.05 2.28 6.05 2.28-6.51-.44 4.442 4.707-5.82-3.09 1.914 5.885-3.753-5.223-.92 6.325-1.07-6.252-3.753 5.002 1.914-5.81-5.82 3.088 4.595-4.56-6.586.44 6.05-2.28-6.128-2.28 6.586.44-4.595-4.633 5.898 3.09-1.99-5.885 3.828 5.002" fill="#FACA21"/>
  </g>
  <g id="mx" fill="none" fill-rule="evenodd">
    <path d="M0 0h96v60H0V0z" fill="#F2F0F0"/>
    <path d="M0 0h31.68v60H0V0z" fill="#00603F"/>
    <path d="M64.32 0H96v60H64.32V0z" fill="#DA2F2A"/>
    <g transform="translate(35 17)">
      <ellipse fill="#687233" cx="8.793" cy="21" rx="2" ry="1"/>
      <path d="M15.5 17c1.38 0 2.5-.672 2.5-1.5S16.88 14 15.5 14c-.65 0-1.314.81-1.867 1.227-.623.467-1.1.566-1.1 1.005 0 .828 1.586.768 2.967.768zm-5.534-3c1.38 0 2.5-.672 2.5-1.5s-1.12-1.5-2.5-1.5c-.65 0-1.314.81-1.868 1.227-.622.467-1.098.566-1.098 1.005C7 14.06 8.585 14 9.966 14z" fill="#F7C340"/>
      <ellipse fill="#007D7C" cx="15" cy="17" rx="2" ry="1"/>
      <ellipse fill="#007D7C" transform="rotate(-26 18.204 16.705)" cx="18.204" cy="16.705" rx="2" ry="1"/>
      <path d="M11.932 20.42c.33 0 1.6.17 2.457 0 .442-.088 1.594-.83 1.96-.994 1.308-.59 1.346-.93 1.346-1.232 0-.21-.95.373-2.02.357C13.943 18.528 11.682 18 11 18c-.464 0-1.08.152-1.946-.154-.984-.348-2.195-1.14-2.195-.806 0 .552 3.967 3.38 5.07 3.38z" fill="#00A9BE"/>
      <ellipse fill="#EFA055" cx="12.5" cy="18.5" rx="2.5" ry="1.5"/>
      <path d="M14.848 9.402c1.208 1.603.195-1.296 3.578 1.336 3.382 2.633 2.304 4.436 2.966 3.937 1.402-1.056.19-5.98-1.105-8.116-1.293-2.138-7.198-5.44-7.365-3.713-.168 1.727-.362 3.517 1.926 6.554z" fill="#814226"/>
      <ellipse fill="#007D7C" cx="11" cy="16" rx="2" ry="1"/>
      <ellipse fill="#007D7C" transform="rotate(6 8.855 15.668)" cx="8.855" cy="15.668" rx="2" ry="1"/>
      <path d="M6.693 7.02c.312.588 2.414.26 2.277.354-2.274 1.56-2.823 4.113-1.073 4.237 1.75.126 1.74 1.32 1.913 1.128.1-.11.496-.875.33-1.65-.146-.685-1.855.093-2.26-.54-.07-.11-.278-.448.096-.913.53-.656 1.75-1.35 1.754-1.947.003-.58.415-.974-.104-1.48-.064-.06-2.31.228-2.366.182-.028-.025.4-1.2.31-1.28-.68-.613-.925-.18-1.19.312-.136.25 0 1.008.313 1.597z" fill="#9FA66A"/>
      <path d="M7.164 13.67c.705.03 1.405.21 1.24-.563-.147-.686-.83-.148-.937-.63-.038-.174-.03-.32-.174-.707-.042-.11-.963-.54-1.002-.902-.025-.246.133-.48.208-.748.068-.244-.015-.845-.267-.982-.47-.257-1.295.092-1.187.285.036.064.343.943.423 1.163.163.446-.026.48.24.932.146.25.718.53.864.778.002-.58-.11 1.346.594 1.375z" fill="#9FA66A"/>
      <path d="M7.826 6.212c-.33.742.447 1.563.4 1.732-.167.617 1.69-2.28 2.458-1.508.57.57-2.18 2.624-.012 5.336 1.777 2.22 3.094 3.378 4.122 2.92.143-.064.4-.886 2.052.116 1.65 1.003 3.07.49 3.07-.11-.003-1.098-4.802-4.297-5.488-5.837-1.23-2.76-2.33-4.743-3.566-4.924-.804-.118-2.598 1.292-3.036 2.277z" fill="#814226"/>
      <ellipse fill="#007D7C" transform="rotate(42 6.405 14.406)" cx="6.405" cy="14.406" rx="1.658" ry="1"/>
      <ellipse fill="#687233" cx="16.697" cy="21.214" rx="2" ry="1"/>
      <ellipse fill="#687233" transform="rotate(-39 20.184 19.036)" cx="20.184" cy="19.036" rx="2" ry="1"/>
      <ellipse fill="#687233" transform="rotate(-56 22.963 15.926)" cx="22.963" cy="15.926" rx="2" ry="1"/>
      <ellipse fill="#687233" transform="rotate(-73 24.113 12.046)" cx="24.113" cy="12.046" rx="2" ry="1"/>
      <ellipse fill="#687233" transform="rotate(-141 12.557 0)" cx="5.816" cy="19.036" rx="2" ry="1"/>
      <ellipse fill="#687233" transform="rotate(-124 11.504 0)" cx="3.037" cy="15.926" rx="2" ry="1"/>
      <ellipse fill="#687233" transform="rotate(-107 10.8 0)" cx="1.887" cy="12.046" rx="2" ry="1"/>
    </g>
  </g>
  <g id="nl" fill="none" fill-rule="evenodd">
    <path d="M0 20.308h96v19.384H0V20.308z" fill="#F2F0F0"/>
    <path d="M0 0h96v20.308H0V0z" fill="#DA2F2A"/>
    <path d="M0 39.692h96V60H0V39.692z" fill="#2A4086"/>
  </g>
  <g id="no" fill="none" fill-rule="evenodd">
    <path d="M0 0h96v60H0V0z" fill="#DA2F2A"/>
    <path d="M96 25.532H32.914V0h-10.97v25.532H0v10.213h21.943V60h10.97V35.745H96V25.532" fill="#F1EFEF"/>
    <path d="M96 28.085H30.17V0h-5.484v28.085H0v5.106h24.686V60h5.485V33.19H96" fill="#2A4086"/>
  </g>
  <g id="nz" fill="none" fill-rule="evenodd">
    <path d="M0 0h96v60H0V0z" fill="#282A68"/>
    <path d="M69.386 46.258h3.457l1.122-3.132 1.123 3.05h3.457l-2.766 2.06 1.123 3.298-2.938-2.06-2.85 2.06L72.15 48.4l-2.764-2.142M55.934 25.172h3.028l.983-2.743.984 2.67h3.028l-2.424 1.806.985 2.888-2.575-1.805-2.498 1.804.91-2.744-2.423-1.878" fill="#FFF"/>
    <path d="M56.994 25.564h2.227l.725-2.018.724 1.966h2.227l-1.78 1.33.723 2.124-1.895-1.33-1.837 1.33.668-2.02-1.782-1.382" fill="#D8232F"/>
    <path d="M70.013 11.74h3.03l.983-2.743.984 2.67h3.027l-2.423 1.807.984 2.888-2.572-1.805-2.5 1.805.91-2.744-2.423-1.878" fill="#FFF"/>
    <path d="M71.074 12.132H73.3l.726-2.02.723 1.968h2.228l-1.783 1.327.724 2.127-1.894-1.33-1.84 1.33.67-2.02-1.782-1.382" fill="#D8232F"/>
    <path d="M82.35 21.795h2.744l.89-2.486.892 2.42h2.742l-2.194 1.635.892 2.616-2.332-1.635-2.26 1.636.82-2.485-2.193-1.7" fill="#FFF"/>
    <path d="M70.484 46.66h2.627l.855-2.382.855 2.318h2.627l-2.1 1.567.85 2.507-2.232-1.567-2.168 1.567.788-2.38-2.1-1.63M83.412 22.187h1.94l.632-1.76.633 1.714h1.94l-1.552 1.16.63 1.852-1.65-1.158-1.603 1.158.582-1.76-1.552-1.205" fill="#D8232F"/>
    <g>
      <path d="M0 0h48v29.538H0V0z" fill="#282A68"/>
      <path d="M27.986 0v8.987L42.606 0H48v3.39L37.452 9.944H48v9.723H37.452L48 26.224l-.025 3.295-5.428.018-14.56-8.986v8.986h-7.973v-8.986l-14.56 8.986H0v-3.314l10.668-6.556H0V9.87h10.668L.018 3.39.014.01l5.44.014 14.56 9.037V0h7.973" fill="#F2F0F0"/>
      <g fill="#DA2F33">
        <path d="M48 11.746H26.387V0h-4.793v11.746H0v5.897h21.594v11.895h4.793V17.643H48v-5.897"/>
        <path d="M47.995 27.41L35.49 19.994h-3.33L48 29.538l-.005-2.13zM0 29.538h3.38l15.82-9.46-3.614-.083L0 29.538M0 2.107V0l15.84 9.543H12.6L0 2.107M48 0h-3.555L28.8 9.543h3.362L48 0"/>
      </g>
    </g>
  </g>
  <g id="pl" fill="none" fill-rule="evenodd">
    <path d="M0 0h96v60H0V0z" fill="#F2F0F0"/>
    <path d="M0 29.538h96V59.92H0V29.54z" fill="#DA2F2A"/>
  </g>
  <g id="pt" fill="none" fill-rule="evenodd">
    <path d="M0 0h39v60H0V0z" fill="#1F8040"/>
    <path d="M38.137 0H95.05v60H38.137V0z" fill="#DA2F2A"/>
    <g transform="translate(23 16)">
      <circle stroke="#F2E81C" cx="15.5" cy="14.5" r="14.5"/>
      <path fill="#F2E81C" d="M15 0h1v29h-1z"/>
      <path d="M15.965 13C5.415 13 1 15 1 15v-1s5.306-2 14.965-2C25.85 12 30 14 30 14v1s-3.486-2-14.035-2z" fill="#F2E81C"/>
      <path d="M16.647 17.77c-9.735 3.352-12.16 5.647-12.16 5.647l-1.325-.946s4.246-2.576 13.16-5.645c9.12-3.14 13.603-2.57 13.603-2.57l.326.947s-3.867-.784-13.603 2.568zM15.965 7C5.415 7 3 9 3 9V7s3.306-2 12.965-2C25.85 5 28 7 28 7l1 2s-2.486-2-13.035-2z" fill="#F2E81C"/>
      <path d="M14.965 24C4.415 24 3 22 3 22l1 2s1.306 2 10.965 2C24.85 26 27 24 27 24l1-2s-2.486 2-13.035 2z" fill="#F2E81C"/>
      <path d="M12.674 18.84C1.25 14.457 1.434 14 1.434 14l-.634.283s.697 2.41 11.158 6.425c10.703 4.11 13.75 3.136 13.75 3.136l1.8-1.45s-3.41.832-14.834-3.553z" fill="#F2E81C"/>
      <path d="M14.804 12.845c-11.82 3.167-13.38 1.507-13.38 1.507l.222.827s2.853 2.497 13.676-.403c11.074-2.967 13.43-5.843 13.43-5.843l-.42-1.576s-1.708 2.32-13.528 5.487z" fill="#F2E81C"/>
      <path fill="#F2E81C" d="M2 8.544L3.59 6l24.593 15.367-1.59 2.544z"/>
      <path d="M6 6h18v10s0 10-9.137 10S6 16 6 16V6z" stroke="#D92F33" stroke-width="3" fill="#FFF"/>
      <path d="M14 11h2v1.11s0 1.112-1.015 1.112-.985-1.11-.985-1.11V11z" fill="#253879"/>
      <path fill="#F2E81C" d="M14 7h2v1h-2zM21 7h2v1h-2zM7 7h2v1H7zM9 22h2v1H9zM19 22h2v1h-2zM21 14h2v1h-2zM7 14h2v1H7z"/>
      <path d="M14 15h2v1.11s0 1.112-1.015 1.112-.985-1.11-.985-1.11V15zM14 19h2v1.11s0 1.112-1.015 1.112-.985-1.11-.985-1.11V19zM17 15h2v1.11s0 1.112-1.015 1.112-.985-1.11-.985-1.11V15zM11 15h2v1.11s0 1.112-1.015 1.112-.985-1.11-.985-1.11V15z" fill="#253879"/>
    </g>
  </g>
  <g id="ro" fill="none" fill-rule="evenodd">
    <path d="M0 0h96v60H0V0z" fill="#F8B938"/>
    <path d="M0 0h31.68v60H0V0z" fill="#005293"/>
    <path d="M64.32 0H96v60H64.32V0z" fill="#DA2F2A"/>
  </g>
  <g id="ru" fill="none" fill-rule="evenodd">
    <path d="M0 20.308h96v19.384H0V20.308z" fill="#2A4086"/>
    <path d="M0 0h96v20.308H0V0z" fill="#F2F0F0"/>
    <path d="M0 39.692h96V60H0V39.692z" fill="#DA2F2A"/>
  </g>
  <g id="se" fill="none" fill-rule="evenodd">
    <path d="M0 0h96v60H0V0z" fill="#005293"/>
    <path d="M96 25.532H32.914V0h-10.97v25.532H0v10.213h21.943V60h10.97V35.745H96V25.532" fill="#FECB00"/>
  </g>
  <g id="sg" fill="none" fill-rule="evenodd">
    <path d="M0 29h96v31H0V29z" fill="#F2F0F0"/>
    <path d="M0 0h96v30.383H0V0z" fill="#DA2F2A"/>
    <path d="M26.59 12.48c-.206.146-.327.062-.267-.186l.224-.93a.842.842 0 0 0-.242-.76l-.676-.588c-.194-.168-.143-.31.11-.317l.947-.028a.68.68 0 0 0 .592-.462l.295-1.015c.073-.246.202-.25.288-.01l.357 1.004c.086.24.365.44.618.443l.966.01c.254 0 .304.142.114.31l-.737.648c-.19.17-.288.51-.217.756l.235.82c.07.245-.048.337-.265.203l-.784-.49a.755.755 0 0 0-.772.027l-.787.562M22.42 16.126c-.207.148-.326.065-.267-.185l.223-.93a.845.845 0 0 0-.24-.757l-.677-.59c-.193-.166-.144-.31.11-.316l.947-.028a.682.682 0 0 0 .593-.46l.296-1.018c.07-.246.202-.25.288-.007l.357 1c.087.243.364.442.618.445l.967.01c.253.003.304.142.112.31l-.735.65a.8.8 0 0 0-.22.755l.235.817c.072.248-.048.34-.264.204l-.785-.486a.755.755 0 0 0-.77.025l-.788.56M30.843 16.126c-.207.148-.327.065-.267-.185l.224-.93a.85.85 0 0 0-.242-.757l-.677-.59c-.19-.166-.142-.31.112-.316l.947-.028a.682.682 0 0 0 .592-.46l.296-1.018c.073-.246.202-.25.288-.007l.357 1c.086.243.363.442.617.445l.967.01c.253.003.304.142.112.31l-.736.65a.808.808 0 0 0-.22.755l.237.817c.07.248-.05.34-.264.204l-.786-.486a.755.755 0 0 0-.77.025l-.787.56M29.39 21.122c-.206.15-.327.065-.266-.185l.222-.93a.847.847 0 0 0-.24-.76l-.678-.586c-.192-.167-.142-.31.11-.317l.95-.026a.684.684 0 0 0 .592-.462l.296-1.016c.072-.248.2-.25.288-.01l.356 1.002a.72.72 0 0 0 .617.446l.967.008c.254.003.305.143.113.31l-.735.65a.808.808 0 0 0-.22.755l.235.818c.07.248-.048.34-.264.206l-.785-.488a.753.753 0 0 0-.77.025l-.787.562M24.197 21.122c-.207.15-.327.065-.267-.185l.224-.93a.847.847 0 0 0-.242-.76l-.676-.586c-.193-.167-.143-.31.11-.317l.947-.026a.684.684 0 0 0 .593-.462l.296-1.016c.073-.248.202-.25.288-.01l.357 1.002a.72.72 0 0 0 .618.446l.966.008c.254.003.305.143.113.31l-.735.65a.804.804 0 0 0-.218.755l.235.818c.07.248-.048.34-.265.206l-.786-.488a.753.753 0 0 0-.77.025l-.787.562" fill="#ECF2FB"/>
    <path d="M22.065 21.756l-.033.014c-.362.198-.745.37-1.148.51-3.863 1.332-8.06-.762-9.376-4.677a7.572 7.572 0 0 1-.394-2.278c-.03-.757.052-1.53.263-2.3 1.088-3.984 5.16-6.322 9.093-5.22.41.116.802.265 1.175.443l.033.01a.25.25 0 0 0 .31-.178l-.107-.282a9.112 9.112 0 0 0-3.268-1.682C13.675 4.73 8.562 7.666 7.195 12.67a9.506 9.506 0 0 0 .16 5.535c1.65 4.915 6.922 7.545 11.77 5.87a9.14 9.14 0 0 0 3.17-1.87l.09-.29a.25.25 0 0 0-.32-.16" fill="#ECF2FB"/>
  </g>
  <g id="th" fill="none" fill-rule="evenodd">
    <path d="M0 0h96v59.09H0V0z" fill="#F2F0F0"/>
    <path d="M0 20.116h96v18.86H0v-18.86z" fill="#282B69"/>
    <path d="M0 49.033h96V59.09H0V49.034zM0 0h96v10.058H0V0z" fill="#DA2F2A"/>
  </g>
  <g id="tr" fill="none" fill-rule="evenodd">
    <path d="M0 0h96v60H0V0z" fill="#DA2F2A"/>
    <path d="M37.64 41.747c-6.925 0-12.54-5.293-12.54-11.82 0-6.53 5.615-11.82 12.54-11.82 4.42 0 8.3 2.156 10.535 5.415-2.547-5.066-8.018-8.57-14.36-8.57-8.77 0-15.884 6.704-15.884 14.975 0 8.27 7.114 14.974 15.885 14.974 6.342 0 11.813-3.503 14.36-8.57-2.234 3.258-6.116 5.417-10.535 5.417" fill="#F1EFF0"/>
    <path d="M51.707 22.83l3.466 4.28 5.495-1.577-3.345 4.394 3.345 4.28-5.376-1.58-3.466 4.396-.12-5.407-5.137-1.69 5.256-1.577-.12-5.52" fill="#F1EFF0"/>
  </g>
  <g id="ua" fill="none" fill-rule="evenodd">
    <rect fill="#2D62AD" width="96" height="30"/>
    <rect y="30.0002651" fill="#F9D405" width="96" height="30"/>
  </g>
  <g id="vn" fill-rule="evenodd">
    <rect fill="#DA251D" width="96" height="60"/>
    <polygon fill="#FFE500" points="48,11.2499733 52.2292938,24.3519096 65.9969025,24.3254929 54.8430862,32.3964806 
      59.122715,45.4821091 48,37.3682671 36.8773079,45.4821091 41.1569176,32.3964806 30.0030956,24.3254929 43.7707291,24.3519096 	
      "/>
  </g>
  <g id="za" fill="none" fill-rule="evenodd">
    <path d="M0 0h95.05v60H0V0z" fill="#1F8040"/>
    <path d="M14.936 0H95.05v24.255H42.093L14.936 0z" fill="#FFF"/>
    <path d="M20.368 0H95.05v20.426h-51.6L20.37 0z" fill="#DA2F2A"/>
    <path d="M14.936 60H95.05V35.745H42.093L14.936 60z" fill="#FFF"/>
    <path d="M20.368 60H95.05V39.574h-51.6L20.37 60z" fill="#282B69"/>
    <path d="M31.23 30.638L.164 2.553 0 58.723l31.23-28.085z" fill="#F8B938"/>
    <path d="M25.8 30.638L.162 7.66 0 53.617l25.8-22.98z" fill="#434B58"/>
  </g>
  <g id="world">
    <rect y="0.0018262" style="fill:#F3F1F1" width="96" height="59.9981728"/>
    <path style="fill:#080808" d="M0,0.0018262h33.5757446v0.8784726l-0.7642899,0.6143129l0.2934914,0.3939254l-1.4202309,0.2451568
	c-0.5633888,0.3361218-0.8268642,0.5041859-0.7904167,0.5041859c0.0059452,0,0.3027897,0.1143293,0.8905392,0.342988
	l1.0266171-0.342988l1.4848709,1.2100296l2.2453613,1.005403l-0.3006248-1.005403l0.9659386,0.2519913l0.4529533-0.5128832
	l-0.5461845-0.750042l-0.8727074-0.7683139l-0.3424187-0.9003682c0.2816544-0.0910667,0.4959831-0.0910667,0.6430435,0
	c0.1470642,0.0910604,0.5198174,0.4546155,1.1182671,1.0906334l1.0269318-1.3786278
	c-1.2876587-0.5832177-1.8512383-0.8760377-1.6907806-0.8784726c0.1604652-0.002435,19.3859673-0.002435,59.0038948,0v27.2197323
	l-2.580513-0.36866l-0.4265823-0.7204723l-0.4329224,0.2729359h-0.736145l-1.3018265-0.7877293l-0.2461548-0.705471
	l-0.6150513-0.518898l-0.4159164,0.2292309v0.9951382l1.0309677,1.3372231l0.2461548-0.1019573v0.7796593l1.1316299,0.1180134
	l1.1866684-1.0852356l0.2529221,0.9672222l0.8532791,0.4425545l0.4425125,0.5172462l-0.3545151,0.9207535l-0.6150208,0.6851978
	l-2.3044586,1.8231659l-3.6591263,1.569416l-5.4904938-8.6787281l1.9651337,4.432972v0.8531761l0.9580383,0.6092739
	l0.131897,1.2138901l1.0233383,0.5495605l1.4120865,2.1556168l3.0661087-0.849453v1.6081619l-1.2771225,2.0318985
	l-0.9058762,1.2801933l-1.6713867,1.2032356l-1.6471481,2.3948898l0.6919479,2.8848839l-0.2570572,2.4110794l-2.5091248,2.3140221
	l0.3379517,2.1503792l-1.3187866,0.8130035v0.9716682l-2.3968964,3.2436409L75.8797226,57.71661l-1.867775-4.3601723
	c-0.226059-1.072319-0.4112549-1.82938-0.5556107-2.2711754c-0.1443329-0.4417953-0.5347595-1.4465981-1.1712418-3.0144005
	l1.1712418-2.3401031l-0.7953796-3.3351784l-1.5107574-1.9867439l0.4374542-2.116909l-1.8906708-0.7746658l-0.9124146-0.7889175
	l-2.587883,0.7889175H63.031414l-4.0720787-4.0659294l1.0013428-2.2285118l-0.4454231-1.8776836l1.5419846-3.2127075
	l1.3870926-0.6637344l0.624279-1.922596l1.5583496-1.9968243l1.569725,0.1653938l2.8660126-1.0083351l0.8329697,0.1633282
	l0.5701523-0.2350254l0.5172195,0.2350254l0.6046143-0.2923241l0.6974411,0.1289959l-0.2064514,0.4397202l0.2064514,0.4032211
	l-0.2064514,0.7678108l0.4160843,0.6274796l1.1590576,0.1650639l1.4413605,1.0161152l0.6759491,0.2675228l0.4066467-0.1356144
	l0.1697006-0.9070091l1.0724335-0.2410145l1.0111008,0.5730801l1.710083,0.4430351l1.2987595-0.2456207l1.3093643,0.2456207
	l0.4668808-1.4804707l0.3845596-1.7756119l-0.3164291,0.1356621l-0.3379517-0.1356621l-0.4462585,0.3901558h-0.4798126
	l-0.657753-0.3901558l-0.5554123,0.3901558l-0.8779373-0.3369236L79.568512,20.538002
	c0.0398331-0.0968647,0.0398331-0.1665287,0-0.2090302c-0.0397949-0.0424976-0.2071915-0.1515274-0.5021515-0.327055
	c0.1215286-0.0829296,0.1937256-0.1575298,0.216629-0.2237244c0.0228958-0.0662308,0.0228958-0.2004948,0-0.4027882
	l-0.216629-0.361824l1.4337921-0.298624v-0.3954887h0.9396667l0.5803528-0.3545208h1.1958923l0.7144775,0.3545208
	l1.524826,0.1412315l0.6460114-0.2928581l-0.1488953-0.8238106l-1.3915253-0.7862072l-0.6304169-0.6588478l0.6330795-1.1446314
	l-1.4823837,0.655447l0.7085114,0.4891844l-1.0881348,0.578516l-1.3391953-1.3752575l-1.0942307,0.9213696v0.8665428
	l-0.5561142,0.7257786l0.4289856,0.7035427l-1.0406342,0.472887c-0.335556-0.2135944-0.5586853-0.3241577-0.6694489-0.3316555
	c-0.1107559-0.0075016-0.2685852,0.0772285-0.4734497,0.2542572c0.0851669,0.1477604,0.0851669,0.2473259,0,0.298624
	c-0.0177994,0.0107002-0.153595-0.0630322-0.4073868-0.2212257v0.5830498l0.6471481,0.8477745l-0.2397614,0.105793
	l-0.4073868-0.1843586v0.7782764l-0.4985199-0.0532322l-0.1470261-0.7250443l-0.9551086-1.2202625v-0.959404l-0.9589691-0.7233124
	l-0.6701813-0.3514881l-0.5064774-0.7710438l-0.4548569-0.095499l-0.178627-0.4251184l-0.5194168,0.1974621v0.2276564
	c0.0454941,0.2557278,0.1032944,0.4338207,0.1734314,0.5342197c0.0701294,0.1004295,0.2140198,0.2111912,0.4317093,0.3323231
	l0.3876877,0.9818363l0.7982483,0.0929642c-0.052597,0.0819626-0.052597,0.1495953,0,0.2028942
	c0.0222321,0.0225315,0.3291245,0.2048931,0.920639,0.5471153l0.1142349,0.298624l-0.3917618-0.2212257l-0.429657,0.1022301
	v0.3082256l0.2348328,0.4518528c-0.1111679,0.0327644-0.1894302,0.0739288-0.2348328,0.1235294
	c-0.0453949,0.0495987-0.1165237,0.1717606-0.2134552,0.3664207l-0.4400864,0.0785656l-0.0913315,0.4114532v0.5114174
	l-1.0862274-0.6676121l0.1180878-0.2552586l0.6134796,0.105793l0.6379852-0.1843586l0.2480927-0.4604187l-0.2480927-0.4813843
	l-0.3900833-0.487854l-0.8613815-0.5471153l-0.6673813-0.5519161l-0.9525681-1.1959667l-1.2066574,0.6845818h-1.6138535v0.8604069
	l-1.1599655,0.7500095l-0.2221909,1.0632362l-0.9331741,1.091465l-1.8281479,0.4730186l-0.3678207-0.6363468h-0.932106
	l-0.2144241-0.9281368l0.2144241-1.0632362l-0.0371971-1.3709259l0.6176834-0.4538841l2.7158852,0.2143936
	c0.2255554-0.6364822,0.3383255-1.0726681,0.3383255-1.3085928c0-0.2358942-0.1127701-0.4206209-0.3383255-0.5541506
	l-0.1682968-0.4874525l-1.152565-0.6766462l2.6270523-0.9042721l0.3978882-0.6998138l0.9936371-0.5269175l0.634285-1.136796
	l1.4532166-0.4779539l-0.5017471-1.6865826l0.9392014-0.8386068l0.3144531,2.3746939l1.187706-0.097497l0.4761429,0.2479925
	l2.3835297-0.4827518c0.392189-0.2786894,0.6326828-0.494586,0.7214813-0.6477127
	c0.0424347-0.0731983,0.0424347-0.3627214,0-0.8685064l0.5767517-0.7325778l0.9495697,0.4369187l-0.4640503-1.2642951
	l1.0159302-0.4355202h0.8193436l0.6996765-0.321455c0.0281372-0.3498225-0.014267-0.5247178-0.1271286-0.5247178
	s-0.9765015,0.1748953-2.5909195,0.5247178l-0.645546-0.5247178l-0.2336273-1.6434169l2.0782013-1.5889828l-0.5518799-0.7643149
	l-1.2926941,0.3939254l-0.2336273,1.0923307l-1.5758209,1.1190329l0.3917618,2.2375984l-0.8214188,0.9058738l0.2348328,0.7939415
	l-0.5799866,0.8979082l-1.1399612,0.4549522l-1.2782669-3.0526757l-1.2536545,0.9058738l-1.139534-0.3150239l0.1880646-2.5074229
	l4.3149643-4.4190998H52.0221481l-0.7267456,1.1664671l-1.2448578,0.3263184l-1.7186813,0.6390822v1.4533236l-0.5566177,0.2608919
	l-0.5653839,2.1681347l-2.0392342-0.5247178l-1.5326233-1.9043088l-1.0170021-2.0924058l-0.2286606-1.4927855H29.3594189
	l0.3851109,0.5446141l-1.8770809,0.9481714l-0.6298485-0.3263184l0.1720448,0.3263184l-0.7327175,0.5740499l0.3264599,0.3964558
	l-0.3595715,0.403856l-0.8596382,0.379055l-0.4473057,0.5998809l-0.8083515,0.3519239L23.680769,5.4913263l-0.2792282,1.7520466
	l0.6245747-0.1395307l1.3107567,1.2291312l2.5305767,1.2851257h1.0286198l0.4633503,1.6889505l0.8434181,0.9703016
	l0.6914616-0.5651484l-0.4380341-1.5307541l1.3577785-1.2462263L30.760458,6.928349l0.8737812-3.3413315l0.5224762,0.8339086
	h1.2652321l1.6619873,1.2934613l1.1571274,1.5289855l1.0716362-1.2273288l1.3741875,2.6293178l2.2703362,1.6865826
	l0.6199799,1.3802586l-2.1793671,1.1946306l-1.7378807,0.9579716l-0.3472557,1.1052313l1.3741875,1.0535669l-1.6907806,1.0809364
	l-0.755043-0.6845818l-1.4784203,0.9240723l0.1436958,0.9754372l-2.094883,1.2805614l-0.6547394,2.3938274l-2.4121857,1.8862629
	l-0.127327,0.8526211l0.388525,0.8416176l0.1971092,1.2785397l-0.4583073,0.5194855l-0.5984344-1.0840073l-0.3914814-1.2600422
	l-0.4673233-0.2955933l-0.2456112,0.2955933l-0.8040791-0.4058399l-0.5606728,0.1102467l-0.8927498-0.1102467l0.1709957,0.1777725
	v0.4896717h-0.3743896l-0.7760887-0.3777771l-0.2761745,0.1161728l-0.7057991-0.1161728L23.140522,25.574358l-0.4734058,0.0432739
	l-0.5065651,0.7877293l0.2905979,0.9670219l-0.2905979,0.9661541l0.2905979,1.1745739l1.22962,1.5241737l1.3069344-0.1855812
	l0.6665668-1.5065708h1.4075603l-0.664217,2.8470211l2.215353,0.1712189l0.1416473,2.3632774l0.9899158,0.9732246
	l0.9059448-0.4197502l1.1635685,0.6996231l0.614809-1.2530975l1.8674736-0.849453l-0.1668625,1.6081619H34.52285v-0.9349213
	l0.779377-0.1509056c0.6312141,0.2861977,1.1063652,0.4561501,1.4255219,0.5098495s0.8540421,0.0536995,1.6046829,0
	l2.6247902,2.1306l2.206665,0.4772758l1.1560326,1.8747826l1.2241936,0.537178
	c0.563118,0.5639153,1.0428658,0.9510574,1.4392929,1.1614227c0.1628571,0.086441,0.8483391,0.2109909,2.0563354,0.3736458
	l2.255661,1.3206596v1.2971077l-1.9676056,2.5713272c0.0892296,0.8440971,0.0892296,1.4646988,0,1.8618202
	c-0.0892296,0.3971138-0.4212189,1.2537994-0.9959335,2.5700569l-3.4072647,1.6223831v1.5154533l-2.5322571,3.6311188h-1.8828392
	l0.6705093,1.3816185L40.5095024,60h-7.0875549l0.8743782-2.2833939v-2.1653175l0.6100121-3.8322067l0.177597-1.2784691
	l-0.3212929-1.3154221l-2.7039337-1.8083038l-0.094511-0.6635056l-0.8850937-1.7763786l-0.3186455-0.7949486l-0.2141399-0.1278877
	l-0.0900536-0.4664421l-0.2534275-0.1285057l-0.4583073-0.9636421l0.7117348-0.9312897l-0.4642467-0.1391182v-0.6231041
	l0.3069592-1.0239601l1.3352623-1.3861809l-0.5551357-2.1129341l-0.3186455-0.4791145l-0.557621,0.2798729l0.0961399,0.32024
	l-0.3069592,0.2332878l-0.5124702-0.4575462l-0.5136948-0.0959816l-0.6785622-0.7349548h-0.4198418l-0.144701-0.694355
	l-0.9128551-1.0991096l-0.4122791,0.1395607l-1.5929184-0.6035118l-0.7785797-0.7952232l-0.6245747-0.170681l-0.5002422,0.3418999
	l-0.4501495-0.1712189h-0.2905979l-0.9508209-0.5766201h-0.480587l-0.4203358-0.3927174l-0.6020336-0.1855316l-1.1286316-0.8389759
	l0.2455311-0.6851978l-0.7894516-1.2900639l-1.1036015-1.0014896l-0.1417713-0.4742279l-1.4539413-1.4573917L15.02071,24.2576485
	l-0.8318195-0.3775291l0.4114218,1.2502689l0.4203978,0.3383026l0.3141975,0.7586956l0.4312553,0.6255112l0.5950089,1.2222137
	l0.3172741,0.2634258l-0.1468067,0.2538204l-1.0025377-0.9598007v-0.4685993L15.02071,26.5637398l-0.720726-0.3363533
	l0.4071512-0.0949612l-0.9227619-1.1040916l-0.5939407-1.6776943l-0.4592505-0.5519066l-1.1208153-0.5824165l-1.6095514-3.2027359
	l0.1498861-3.7717838l-0.4076519-0.6532469l0.2577658-0.3108921l0.5956526,0.3108921v-0.7237444l-2.0007496-1.2939281
	L7.254889,10.8098984L5.6045027,8.3329735L3.1839638,6.7730193L0,6.0160441V0.0018262z"/>
  </g>
</svg>